HIERARCHY
ROOT Hips
{
	OFFSET	0.00	0.00	0.00
	CHANNELS 6 Xposition Yposition Zposition Zrotation Xrotation Yrotation
	JOINT Spine
	{
		OFFSET	 0.00	0.01	 0.00
		CHANNELS 3 Zrotation Xrotation Yrotation
		JOINT Spine1
		{
			OFFSET	 0.00	 2.45913012437421	 0.00
			CHANNELS 3 Zrotation Xrotation Yrotation
            JOINT Neck
            {
                OFFSET	 0.00	 2.48462964506057	 0.00
                CHANNELS 3 Zrotation Xrotation Yrotation
                JOINT Head
                {
                    OFFSET	 0.00	 0.927524780924562	 0.00
                    CHANNELS 3 Zrotation Xrotation Yrotation
                    End Site 
                    {
                        OFFSET	 0.00	 1.14999962169752	 0.00
                    }
                }
            }
			JOINT LeftShoulder
			{
				OFFSET	 0.00	 2.48462964506057	 0.00
				CHANNELS 3 Zrotation Xrotation Yrotation
				JOINT LeftUpArm
				{
					OFFSET	 0.00	 1.24881979654096	 0.00
					CHANNELS 3 Zrotation Xrotation Yrotation
					JOINT LeftForeArm
					{
						OFFSET	 0.00	2.59758046908119	 0.00
						CHANNELS 3 Zrotation Xrotation Yrotation
						JOINT LeftHand
						{
							OFFSET	 0.00	2.45542024364365	 0.00
							CHANNELS 3 Zrotation Xrotation Yrotation
							JOINT LeftHandThumb 
							{
								OFFSET	 0.00	0.00	 0.00
								CHANNELS 3 Zrotation Xrotation Yrotation
								End Site
								{
									OFFSET	 0.00	0.00	1.00000003353624
								}
							}
							JOINT L_Wrist_End 
							{
								OFFSET	 0.00	0.99999967115358	 0.00
								CHANNELS 3 Zrotation Xrotation Yrotation
								End Site 
								{
									OFFSET	 0.00	 0.00	 0.00
								}
							}
						}
					}
				}
			}
			JOINT RightShoulder
			{
				OFFSET	 0.00	 2.48462964506057	 0.00
				CHANNELS 3 Zrotation Xrotation Yrotation
				JOINT RightUpArm
				{
					OFFSET	 0.00	 1.24881979654096	 0.00
					CHANNELS 3 Zrotation Xrotation Yrotation
					JOINT RightForeArm
					{
						OFFSET	 0.00	2.59758046908119	 0.00
						CHANNELS 3 Zrotation Xrotation Yrotation
						JOINT RightHand
						{
							OFFSET	 0.00	2.45542024364365	 0.00
							CHANNELS 3 Zrotation Xrotation Yrotation
							JOINT RightHandThumb 
							{
								OFFSET	 0.00	0.00	 0.00
								CHANNELS 3 Zrotation Xrotation Yrotation
								End Site
								{
									OFFSET	 0.00	0.00	1.00000003353624
								}
							}
							JOINT R_Wrist_End 
							{
								OFFSET	 0.00	0.99999967115358	 0.00
								CHANNELS 3 Zrotation Xrotation Yrotation
								End Site 
								{
									OFFSET	 0.00	 0.00	 0.00
								}
							}
						}
					}
				}
			}
		}
	}
	JOINT LeftUpLeg
	{
		OFFSET	 1.2719394002717	 0.00	 0.00
		CHANNELS 3 Zrotation Xrotation Yrotation
		JOINT LeftLowLeg
		{
			OFFSET	 0.00	-4.3429100912261	 0.00
			CHANNELS 3 Zrotation Xrotation Yrotation
			JOINT LeftFoot
			{
				OFFSET	 0.00	-4.48767017425826	 0.00
				CHANNELS 3 Zrotation Xrotation Yrotation
				JOINT LeftToeBase
                {
                    OFFSET	 0.00	0.00	 1.51507020887566
                    CHANNELS 3 Zrotation Xrotation Yrotation
                    End Site 
                    {
                        OFFSET	 0.00	0.00	 0.75000010571191
                    }
                }
			}
		}
	}
	JOINT RightUpLeg
	{
		OFFSET	 -1.2719393604653	 0.00	 0.00
		CHANNELS 3 Zrotation Xrotation Yrotation
		JOINT RightLowLeg
		{
			OFFSET	 0.00	-4.3429100912261	 0.00
			CHANNELS 3 Zrotation Xrotation Yrotation
			JOINT RightFoot
			{
				OFFSET	 0.00	-4.48767017425826	 0.00
				CHANNELS 3 Zrotation Xrotation Yrotation
				JOINT RightToeBase
                {
                    OFFSET	 0.00	0.00	 1.51507020887566
                    CHANNELS 3 Zrotation Xrotation Yrotation
                    End Site 
                    {
                        OFFSET	 0.00	0.00	 0.749999965609858
                    }
                }   
			}
		}
	}
}
MOTION 
Frames:	6 
Frame Time: 0.02 
 -2.5815200805664062 6.982999877929688 9.258359985351563 97.112 87.236 984.566 2.85475 -17.3546 1.56873 -7.89704 19.5863 3.64899 19.6198 46.6776 351.972 -51.7393 -80.7884 -403.359 -115.7021 -2.02312 365.609 -45.4877 6.1479 20.2224 0.0 19.4686 0.0 4.94858 -18.216 -12.7095 0.0 0.0 0.0 0.0 0.0 0.0 121.5428 -4.9231 -360.373 46.9436 2.74414 -380.035 0.0 22.6275 0.0 3.55257 -9.50153 14.9951 0.0 0.0 0.0 0.0 0.0 0.0 -2.52375 -1.01229 -10.3208 0.0 16.6567 0.0 -16.8077 -8.457001 12.9423 0.0 -19.560051 0.0 3.41469 -0.774367 14.5761 0.0 20.2911 0.0 29.2095 -15.449499 -7.78545 0.0 -16.60989 0.0 
  -2.5812701416015624 6.97780029296875 9.25926025390625 98.1317 87.2494 983.72 2.75855 -17.565 1.38721 -7.77642 19.6837 3.60776 19.4042 46.6549 352.15 -52.0406 -80.7476 -403.691 -115.7077 -1.99958 365.601 -45.6023 6.15725 20.3406 0.0 19.7277 0.0 5.35756 -18.2067 -12.3044 0.0 0.0 0.0 0.0 0.0 0.0 121.4242 -4.88804 -360.436 46.9791 2.72886 -380.119 0.0 22.654 0.0 3.48556 -9.54928 14.7232 0.0 0.0 0.0 0.0 0.0 0.0 -2.50895 -1.04764 -10.4863 0.0 16.6595 0.0 -16.8009 -8.438801 12.9406 0.0 -19.59149 0.0 3.40722 -0.701669 14.3451 0.0 20.1305 0.0 29.1183 -15.3972 -7.82239 0.0 -16.61459 0.0 
  -2.581409912109375 6.976840209960938 9.25968994140625 95.917 87.2616 985.898 2.74289 -17.4925 1.38214 -7.74153 19.6652 3.6202 19.2433 46.6296 352.29 -52.2808 -80.7292 -403.943 -115.683304 -2.01036 365.623 -45.7182 6.25267 20.3531 0.0 19.9378 0.0 5.72854 -18.0381 -12.0823 0.0 0.0 0.0 0.0 0.0 0.0 121.4236 -4.89222 -360.459 46.93 2.74235 -380.225 0.0 22.6528 0.0 3.73234 -10.0532 13.7016 0.0 0.0 0.0 0.0 0.0 0.0 -2.50328 -0.931007 -10.4333 0.0 16.6575 0.0 -16.7688 -8.4237995 12.9498 0.0 -19.58391 0.0 3.39485 -0.588909 14.2552 0.0 20.1087 0.0 29.1117 -15.3388 -7.75005 0.0 -16.62754 0.0 
  -2.581889953613281 6.976710205078125 9.259660034179687 95.0095 87.2709 986.77 2.70411 -17.4736 1.35357 -7.67567 19.6123 3.63283 19.1602 46.6468 352.351 -52.8271 -80.74 -404.535 -115.6718 -2.01224 365.628 -45.8141 6.2937 20.4511 0.0 20.18 0.0 6.33205 -17.9154 -11.1128 0.0 0.0 0.0 0.0 0.0 0.0 121.3683 -4.83469 -360.495 46.926 2.71486 -380.298 0.0 22.6303 0.0 3.83 -10.3091 13.538 0.0 0.0 0.0 0.0 0.0 0.0 -2.50126 -0.879956 -10.4497 0.0 16.6578 0.0 -16.7789 -8.4547 12.9944 0.0 -19.55289 0.0 3.40408 -0.563935 14.2674 0.0 20.1412 0.0 29.0686 -15.320801 -7.753 0.0 -16.63511 0.0 
  -2.5822100830078125 6.976640014648438 9.259869995117187 94.0139 87.2686 987.71 2.66836 -17.436 1.34672 -7.6174 19.5518 3.6629 19.0554 46.6772 352.45 -53.0852 -80.7292 -404.781 -115.7242 -2.0128 365.62 -45.7983 6.33575 20.6996 0.0 20.4013 0.0 6.72463 -17.7935 -10.267 0.0 0.0 0.0 0.0 0.0 0.0 121.3336 -4.83101 -360.506 46.9165 2.70648 -380.355 0.0 22.5739 0.0 3.86484 -10.2687 13.4929 0.0 0.0 0.0 0.0 0.0 0.0 -2.49363 -0.831352 -10.3256 0.0 16.6596 0.0 -16.8047 -8.431601 12.92 0.0 -19.57508 0.0 3.40051 -0.538555 14.2994 0.0 20.174 0.0 29.0388 -15.3018 -7.7459 0.0 -16.63955 0.0 
  -2.5822100830078125 6.976309814453125 9.259860229492187 93.2911 87.2804 988.414 2.65491 -17.4214 1.33631 -7.57493 19.4854 3.66144 19.0204 46.684 352.45 -53.5631 -80.7303 -405.276 -115.746796 -2.00695 365.628 -45.7649 6.36142 20.9864 0.0 20.5788 0.0 7.22816 -17.6146 -9.99 0.0 0.0 0.0 0.0 0.0 0.0 121.2976 -4.79553 -360.512 46.9206 2.64669 -380.416 0.0 22.5185 0.0 3.86816 -10.1717 13.4723 0.0 0.0 0.0 0.0 0.0 0.0 -2.48355 -0.799209 -10.3037 0.0 16.6734 0.0 -16.7972 -8.4356 12.9193 0.0 -19.58472 0.0 3.40145 -0.499651 14.2551 0.0 20.1589 0.0 29.0741 -15.2794 -7.68479 0.0 -16.63072 0.0 
